<svg xmlns="http://www.w3.org/2000/svg" width="441.865" height="144.926" viewBox="0 0 441.865 144.926">
  <g id="Group_3" data-name="Group 3" transform="translate(17.292 8.571)">
    <text id="Ticketing" transform="translate(155.573 81.728)" fill="#333" font-size="67" font-family="billcorporatenarrow-extrabold" font-weight="800"><tspan x="0" y="0">Ticketing</tspan></text>
    <path id="Path_3" data-name="Path 3" d="M426.4,145.8" transform="translate(-250.911 -81.707)" fill="#3d3d3d"/>
    <g id="Group_2" data-name="Group 2" transform="translate(-17.292 32.59) rotate(-19)">
      <path id="Subtraction_1" data-name="Subtraction 1" d="M44.244,109.743h0V98.87l-21.875.078H22.3A22.2,22.2,0,0,1,.112,76.807L.075,66.153H.226A10.11,10.11,0,1,0,.187,45.934H.037L0,35.28A22.132,22.132,0,0,1,22.1,13.066l21.875-.076L43.938,0l5.8,12.952,54.329-.15h.068a22.176,22.176,0,0,1,22.184,22.14l.037,10.654h-.525a10.108,10.108,0,1,0,.037,20.217h.528l.037,10.657a22.22,22.22,0,0,1-22.138,22.252l-42.86.116,1.821-2.378,9.864-.036a3.452,3.452,0,0,0,2.48-1.046,3.389,3.389,0,0,0,.984-2.455,3.506,3.506,0,0,0-3.436-3.465H68.56l5.988-7.868,9.3-.039A3.454,3.454,0,0,0,86.33,80.5a3.385,3.385,0,0,0,.981-2.454,3.5,3.5,0,0,0-3.436-3.465H79.856L88.629,62.8c2.687.185,5.217.279,7.521.279,11.855,0,16.257-2.444,17.861-4.494a3.548,3.548,0,0,0,.86-2.827,3.651,3.651,0,0,0-.863-3.066c-3.106-3.64-13.549-4.183-19.5-4.183-3.373,0-5.9.17-5.918.172L79.9,37.312h3.8a3.449,3.449,0,0,0,2.481-1.046,3.389,3.389,0,0,0,.981-2.455,3.455,3.455,0,0,0-3.436-3.465h-.065l-9.11.039-6.176-8.058h5.459a3.454,3.454,0,0,0,2.484-1.047,3.385,3.385,0,0,0,.981-2.454,3.5,3.5,0,0,0-3.436-3.465h-.065L63.026,15.4l-1.845-2.373-11.52.039c.01.014.061.131.152.336,3.013,6.827,12.882,29.322,13.4,32.118a3.156,3.156,0,0,1-.41,2.534,2.77,2.77,0,0,1-1.737,1.006L32.6,50.828,18.525,33.81a9.5,9.5,0,0,0-3.535-.544,20.292,20.292,0,0,0-2.825.206l8.016,19.09h-.489a3.45,3.45,0,0,0-2.481,1.045,3.391,3.391,0,0,0-.984,2.456,3.452,3.452,0,0,0,3.433,3.463h.258v.3L12.313,78.578l5.8.036,14.27-17.506c.238.017,25.008,1.77,28.464,1.77A2.327,2.327,0,0,1,62.8,63.7c.949,1.231.382,3.445.376,3.467l-13.312,31.7H49.7Z" transform="translate(0 0)" fill="#ecb61c"/>
    </g>
  </g>
</svg>
