<svg xmlns="http://www.w3.org/2000/svg" xmlns:xlink="http://www.w3.org/1999/xlink" width="1920" height="1080" viewBox="0 0 1920 1080">
  <defs>
    <clipPath id="clip-path">
      <rect id="Rectangle_599" data-name="Rectangle 599" width="1920" height="1080" fill="#fff"/>
    </clipPath>
    <clipPath id="clip-path-2">
      <rect id="Rectangle_538" data-name="Rectangle 538" width="1780.832" height="1214.38" rx="5.292" fill="none"/>
    </clipPath>
    <radialGradient id="radial-gradient" cx="1399.154" cy="1553.208" r="1474.802" gradientTransform="translate(11.655 11.519) scale(0.992 0.992)" gradientUnits="userSpaceOnUse">
      <stop offset="0" stop-color="#ececec"/>
      <stop offset="1" stop-color="#f5f5f5"/>
    </radialGradient>
    <radialGradient id="radial-gradient-2" cx="1388.314" cy="1594.539" r="1398.242" gradientTransform="translate(-40.534 -64.185) scale(1.028 1.043)" gradientUnits="userSpaceOnUse">
      <stop offset="0" stop-color="#fff"/>
      <stop offset="1" stop-color="#f5f5f5"/>
    </radialGradient>
    <radialGradient id="radial-gradient-3" cx="1262.581" cy="1639.377" r="1363.017" gradientTransform="matrix(1.049, 0.117, -0.117, 1.049, 107.958, -223.757)" gradientUnits="userSpaceOnUse">
      <stop offset="0" stop-color="#b1b1b1"/>
      <stop offset="1" stop-color="#f5f5f5"/>
    </radialGradient>
    <radialGradient id="radial-gradient-4" cx="-590.235" cy="265.427" r="326.19" gradientTransform="matrix(-0.685, 0.502, 0.353, 0.481, -1342.263, 365.616)" gradientUnits="userSpaceOnUse">
      <stop offset="0" stop-color="#fff" stop-opacity="0"/>
      <stop offset="1" stop-color="#fff"/>
    </radialGradient>
    <radialGradient id="radial-gradient-5" cx="-2558.539" cy="969.01" r="326.188" gradientTransform="matrix(-0.685, 0.502, 0.353, 0.481, -5483.366, 1901.235)" gradientUnits="userSpaceOnUse">
      <stop offset="0" stop-color="#a6daff" stop-opacity="0"/>
      <stop offset="1" stop-color="#fff"/>
    </radialGradient>
    <radialGradient id="radial-gradient-6" cx="710.725" cy="1012.352" r="1152.38" gradientTransform="translate(0.608 -0.426) rotate(0.034)" gradientUnits="userSpaceOnUse">
      <stop offset="0" stop-color="#fff" stop-opacity="0"/>
      <stop offset="0.194" stop-color="#fff" stop-opacity="0.012"/>
      <stop offset="0.327" stop-color="#fff" stop-opacity="0.047"/>
      <stop offset="0.443" stop-color="#fff" stop-opacity="0.106"/>
      <stop offset="0.548" stop-color="#fff" stop-opacity="0.192"/>
      <stop offset="0.647" stop-color="#fff" stop-opacity="0.302"/>
      <stop offset="0.74" stop-color="#fff" stop-opacity="0.439"/>
      <stop offset="0.829" stop-color="#fff" stop-opacity="0.6"/>
      <stop offset="0.914" stop-color="#fff" stop-opacity="0.784"/>
      <stop offset="0.995" stop-color="#fff" stop-opacity="0.988"/>
      <stop offset="0.999" stop-color="#fff"/>
    </radialGradient>
    <radialGradient id="radial-gradient-7" cx="693.631" cy="988.004" r="1124.664" gradientTransform="translate(0.593 -0.416) rotate(0.034)" gradientUnits="userSpaceOnUse">
      <stop offset="0" stop-color="#fff" stop-opacity="0"/>
      <stop offset="0.197" stop-color="#fefefe" stop-opacity="0.012"/>
      <stop offset="0.332" stop-color="#fefefe" stop-opacity="0.047"/>
      <stop offset="0.45" stop-color="#fdfdfd" stop-opacity="0.11"/>
      <stop offset="0.556" stop-color="#fcfcfc" stop-opacity="0.2"/>
      <stop offset="0.656" stop-color="#fbfbfb" stop-opacity="0.314"/>
      <stop offset="0.751" stop-color="#fafafa" stop-opacity="0.455"/>
      <stop offset="0.841" stop-color="#f8f8f8" stop-opacity="0.624"/>
      <stop offset="0.926" stop-color="#f6f6f6" stop-opacity="0.812"/>
      <stop offset="0.999" stop-color="#f5f5f5"/>
    </radialGradient>
    <radialGradient id="radial-gradient-8" cx="638.768" cy="705.226" r="672.327" gradientTransform="matrix(1, 0.001, -0.001, 1.08, 0.457, -56.801)" gradientUnits="userSpaceOnUse">
      <stop offset="0" stop-color="#d9d9d9"/>
      <stop offset="0.324" stop-color="#e2e2e2"/>
      <stop offset="0.736" stop-color="#f5f5f5"/>
      <stop offset="0.779" stop-color="#f4f4f4" stop-opacity="0.988"/>
      <stop offset="0.814" stop-color="#f2f2f2" stop-opacity="0.945"/>
      <stop offset="0.846" stop-color="#efefef" stop-opacity="0.875"/>
      <stop offset="0.877" stop-color="#eaeaea" stop-opacity="0.776"/>
      <stop offset="0.906" stop-color="#e4e4e4" stop-opacity="0.651"/>
      <stop offset="0.934" stop-color="#dcdcdc" stop-opacity="0.498"/>
      <stop offset="0.962" stop-color="#d3d3d3" stop-opacity="0.314"/>
      <stop offset="0.988" stop-color="#cacaca" stop-opacity="0.106"/>
      <stop offset="1" stop-color="#c5c5c5" stop-opacity="0"/>
    </radialGradient>
    <clipPath id="clip-path-3">
      <circle id="Ellipse_11" data-name="Ellipse 11" cx="638.808" cy="638.808" r="638.808" fill="none"/>
    </clipPath>
    <radialGradient id="radial-gradient-9" cx="952.884" cy="825.006" r="858.846" gradientTransform="matrix(0.885, -0.08, 0.08, 0.885, 54.788, 113.787)" gradientUnits="userSpaceOnUse">
      <stop offset="0" stop-color="#b1b1b1"/>
      <stop offset="0.722" stop-color="#ececec"/>
      <stop offset="0.797" stop-color="#e8e8e8"/>
      <stop offset="0.867" stop-color="#dcdcdc"/>
      <stop offset="0.936" stop-color="#c9c9c9"/>
      <stop offset="1" stop-color="#b1b1b1"/>
    </radialGradient>
    <radialGradient id="radial-gradient-10" cx="548.052" cy="-391.727" r="1018.105" gradientTransform="matrix(0.659, -0.217, 0.095, 0.289, 161.787, -482.274)" xlink:href="#radial-gradient-4"/>
    <radialGradient id="radial-gradient-11" cx="460.299" cy="-530.068" r="1038.593" gradientTransform="matrix(0.637, -0.156, 0.068, 0.279, 112.261, -670.86)" xlink:href="#radial-gradient-4"/>
    <radialGradient id="radial-gradient-12" cx="338.849" cy="-633.916" r="1038.591" gradientTransform="matrix(0.637, -0.156, 0.068, 0.279, -18.248, -783.463)" gradientUnits="userSpaceOnUse">
      <stop offset="0" stop-color="#e0e0e0" stop-opacity="0"/>
      <stop offset="1" stop-color="#fff"/>
    </radialGradient>
    <radialGradient id="radial-gradient-13" cx="173.692" cy="-565.999" r="365.965" gradientTransform="translate(46.975 -637.396) scale(0.598 0.42)" xlink:href="#radial-gradient-4"/>
    <radialGradient id="radial-gradient-14" cx="66.509" cy="-652.463" r="230.777" gradientTransform="translate(-16.191 -703.371) scale(0.598 0.42)" xlink:href="#radial-gradient-4"/>
    <clipPath id="clip-path-4">
      <path id="Path_406" data-name="Path 406" d="M-35.654,1282.141c0,802.773,824.984,1762.546,1616.448,1762.546S2820.4,2800.119,2820.4,1997.346,2350.393,233.025,1560.485,123.7C1084.82,57.864,574.638,173.25,524.743,791.4,491.229,1206.582-35.654,933.83-35.654,1282.141Z" transform="translate(35.654 -148.703)" fill="none"/>
    </clipPath>
    <radialGradient id="radial-gradient-15" cx="87.313" cy="-217.852" r="694.08" gradientTransform="translate(-118.945 -383.882) scale(0.364 0.393)" gradientUnits="userSpaceOnUse">
      <stop offset="0" stop-color="#f29100"/>
      <stop offset="0.166" stop-color="#f29506" stop-opacity="0.961"/>
      <stop offset="0.442" stop-color="#f5a119" stop-opacity="0.847"/>
      <stop offset="0.736" stop-color="#f8b133" stop-opacity="0.698"/>
    </radialGradient>
    <linearGradient id="linear-gradient" x1="0.5" y1="1.196" x2="0.5" y2="-0.118" gradientUnits="objectBoundingBox">
      <stop offset="0" stop-color="#f8b133" stop-opacity="0"/>
      <stop offset="0.151" stop-color="#f8b133" stop-opacity="0.129"/>
      <stop offset="0.484" stop-color="#f8b133" stop-opacity="0.455"/>
      <stop offset="0.971" stop-color="#f8b133" stop-opacity="0.969"/>
      <stop offset="1" stop-color="#f8b133"/>
    </linearGradient>
    <linearGradient id="linear-gradient-3" x1="0.5" y1="1.196" x2="0.5" y2="-0.118" xlink:href="#linear-gradient"/>
    <linearGradient id="linear-gradient-4" x1="0.5" x2="0.5" y2="1" gradientUnits="objectBoundingBox">
      <stop offset="0" stop-color="#f29100"/>
      <stop offset="1" stop-color="#ffe9c7"/>
    </linearGradient>
    <linearGradient id="linear-gradient-5" x1="0.5" y1="1.196" x2="0.5" y2="-0.118" xlink:href="#linear-gradient"/>
    <linearGradient id="linear-gradient-7" x1="0.5" y1="1.196" x2="0.5" y2="-0.118" xlink:href="#linear-gradient"/>
    <linearGradient id="linear-gradient-8" x1="0.5" y1="1.196" x2="0.5" y2="-0.118" xlink:href="#linear-gradient"/>
    <linearGradient id="linear-gradient-11" x1="0.5" x2="0.5" y2="1" gradientUnits="objectBoundingBox">
      <stop offset="0" stop-color="#fff"/>
      <stop offset="1" stop-color="#fff" stop-opacity="0"/>
    </linearGradient>
    <radialGradient id="radial-gradient-16" cx="-3200.548" cy="268.76" r="70.149" gradientTransform="matrix(-1.067, 0.097, 0.073, 0.807, -7915.555, 381.13)" gradientUnits="userSpaceOnUse">
      <stop offset="0" stop-color="#fff"/>
      <stop offset="0.536" stop-color="#fff"/>
      <stop offset="0.721" stop-color="#fff6db"/>
      <stop offset="0.897" stop-color="#fff0c0"/>
      <stop offset="1" stop-color="#ffeeb6"/>
    </radialGradient>
    <radialGradient id="radial-gradient-17" cx="-1608.204" cy="1053.009" r="266.738" gradientTransform="matrix(-0.578, 0.844, 0.408, 0.28, -3695.013, 2431.875)" xlink:href="#radial-gradient-16"/>
    <linearGradient id="linear-gradient-12" y1="0.5" x2="1" y2="0.5" gradientUnits="objectBoundingBox">
      <stop offset="0" stop-color="#efbc09"/>
      <stop offset="1" stop-color="#fff"/>
    </linearGradient>
    <radialGradient id="radial-gradient-18" cx="-5.16" cy="-240.735" r="2653.591" gradientTransform="matrix(0.245, 0.06, -0.013, 0.054, -257.012, -373.995)" xlink:href="#radial-gradient-16"/>
    <radialGradient id="radial-gradient-19" cx="0.773" cy="-115.901" r="1177.602" gradientTransform="translate(-244.674 -218.404) scale(0.253 0.253)" gradientUnits="userSpaceOnUse">
      <stop offset="0" stop-color="#fff"/>
      <stop offset="0.342" stop-color="#fff0c2"/>
      <stop offset="0.471" stop-color="#fbe393" stop-opacity="0.827"/>
      <stop offset="0.654" stop-color="#f5d258" stop-opacity="0.6"/>
      <stop offset="0.81" stop-color="#f2c62d" stop-opacity="0.439"/>
      <stop offset="0.93" stop-color="#efbe12" stop-opacity="0.337"/>
      <stop offset="1" stop-color="#efbc09" stop-opacity="0.302"/>
    </radialGradient>
    <radialGradient id="radial-gradient-20" cx="-82.037" cy="-108.383" r="129.783" gradientTransform="matrix(0.565, 0.03, -0.025, 0.482, -196.796, -144.968)" xlink:href="#linear-gradient-11"/>
    <radialGradient id="radial-gradient-21" cx="-50.738" cy="-163.846" r="2250.841" gradientTransform="matrix(0.227, 0.056, -0.012, 0.05, -297.682, -301.42)" xlink:href="#linear-gradient-11"/>
    <linearGradient id="linear-gradient-13" x1="0" y1="0.5" x2="1" y2="0.5" xlink:href="#linear-gradient"/>
    <radialGradient id="radial-gradient-22" cx="285.438" cy="188.861" r="249.471" gradientTransform="translate(-53.263 -14.7) scale(0.722 0.722)" xlink:href="#radial-gradient-16"/>
    <radialGradient id="radial-gradient-23" cx="-195.331" cy="75.185" r="0.042" gradientTransform="translate(615578.805 -115.16) scale(0.31 0.31)" gradientUnits="userSpaceOnUse">
      <stop offset="0" stop-color="#00b4ff" stop-opacity="0"/>
      <stop offset="0.049" stop-color="#00b3ff" stop-opacity="0.031"/>
      <stop offset="0.126" stop-color="#00b2ff" stop-opacity="0.122"/>
      <stop offset="0.222" stop-color="#00b1ff" stop-opacity="0.267"/>
      <stop offset="0.333" stop-color="#00afff" stop-opacity="0.467"/>
      <stop offset="0.451" stop-color="#00adff" stop-opacity="0.714"/>
      <stop offset="0.617" stop-color="#00cbff" stop-opacity="0.824"/>
      <stop offset="0.789" stop-color="#00e7ff" stop-opacity="0.918"/>
      <stop offset="0.922" stop-color="#00f8ff" stop-opacity="0.976"/>
      <stop offset="1" stop-color="aqua"/>
    </radialGradient>
    <radialGradient id="radial-gradient-24" cx="-2192.87" cy="325.671" r="341.327" gradientTransform="matrix(-0.551, 0.234, 0.177, 0.417, -4421.956, 740.896)" xlink:href="#radial-gradient-16"/>
    <radialGradient id="radial-gradient-25" cx="-2238.56" cy="-5.721" r="364.781" gradientTransform="matrix(-0.587, 0.053, 0.04, 0.444, -4601.134, -1.758)" xlink:href="#radial-gradient-16"/>
    <linearGradient id="linear-gradient-14" x1="0.13" y1="0.5" x2="1.13" y2="0.5" xlink:href="#linear-gradient"/>
    <radialGradient id="radial-gradient-26" cx="-37.604" cy="97.579" r="79.682" gradientTransform="matrix(0.668, 0.164, -0.14, 0.57, -137.408, 26.666)" xlink:href="#linear-gradient-11"/>
  </defs>
  <g id="bg" clip-path="url(#clip-path)">
    <g id="bg-2" data-name="bg">
      <rect id="Rectangle_595" data-name="Rectangle 595" width="1920" height="1080" fill="none"/>
      <g id="Group_427" data-name="Group 427">
        <g id="Group_371" data-name="Group 371" transform="translate(288.251 -177.282)">
          <g id="Group_365" data-name="Group 365" transform="translate(-139.776 42.902)">
            <g id="Group_364" data-name="Group 364" clip-path="url(#clip-path-2)">
              <path id="Path_395" data-name="Path 395" d="M-72.055,1231.442c0,791.464,906.782,1782.194,1698.246,1782.194S2865.8,2772.513,2865.8,1981.047,2432.047,221.717,1642.139,113.932c-475.665-64.906-1022.1,68.71-1072,678.155C536.626,1201.421-72.055,888.034-72.055,1231.442Z" transform="translate(224.233 27.131)" fill="url(#radial-gradient)"/>
              <path id="Path_396" data-name="Path 396" d="M-35.654,1282.141c0,802.773,824.984,1762.546,1616.448,1762.546S2820.4,2800.119,2820.4,1997.346,2350.393,233.025,1560.485,123.7C1084.82,57.864,574.638,173.25,524.743,791.4,491.229,1206.582-35.654,933.83-35.654,1282.141Z" transform="translate(269.63 -3.919)" fill="url(#radial-gradient-2)"/>
              <path id="Path_397" data-name="Path 397" d="M-35.87,1180.155c-87.584,786.6,627.624,1818.339,1414.227,1905.921S2637.034,2983.607,2724.615,2197,2449.981,416.2,1676.852,221.669c-465.561-117.145-985.2-60.54-1102.228,539.642C496.022,1164.421,2.131,838.858-35.87,1180.155Z" transform="translate(260.269 118.129)" fill="url(#radial-gradient-3)"/>
              <path id="Path_398" data-name="Path 398" d="M239,614.233c.5-.369,1.022-.681,1.537-1.013A146.439,146.439,0,0,1,439.909,417.286a77.765,77.765,0,0,1,128.76-38.493,30.3,30.3,0,1,1,19.346,28.653,77.669,77.669,0,0,1-74.526,105.918A146.45,146.45,0,0,1,278.417,660.011,30.3,30.3,0,1,1,239,614.233Z" transform="translate(593.973 338.693)" fill="url(#radial-gradient-4)"/>
              <path id="Path_399" data-name="Path 399" d="M577.222,588.881c.5-.368,1.025-.681,1.539-1.013A146.437,146.437,0,0,1,778.126,391.934a77.765,77.765,0,0,1,128.76-38.493,30.3,30.3,0,1,1,19.345,28.653,77.667,77.667,0,0,1-74.526,105.918A146.45,146.45,0,0,1,616.634,634.659a30.3,30.3,0,1,1-39.412-45.778Z" transform="translate(1015.774 307.074)" fill="url(#radial-gradient-5)"/>
              <g id="Group_360" data-name="Group 360" transform="translate(702.579 673.466)">
                <circle id="Ellipse_8" data-name="Ellipse 8" cx="671.072" cy="671.072" r="671.072" opacity="0.61" fill="url(#radial-gradient-6)"/>
                <circle id="Ellipse_9" data-name="Ellipse 9" cx="654.932" cy="654.932" r="654.932" transform="translate(16.141 16.14)" fill="url(#radial-gradient-7)"/>
                <circle id="Ellipse_10" data-name="Ellipse 10" cx="638.808" cy="638.808" r="638.808" transform="translate(32.264 32.264)" fill="url(#radial-gradient-8)"/>
                <g id="Group_359" data-name="Group 359" transform="translate(32.264 32.264)">
                  <g id="Group_358" data-name="Group 358" clip-path="url(#clip-path-3)">
                    <path id="Path_400" data-name="Path 400" d="M680.464,616.277,682.834,608l.011-17.945s-8.281.789-10.056-.007-.586-5.712-.586-5.712l8.283-7.092-16.561,3.539-5.919,9.256-18.341,11.429,8.276,4.737,5.321,3.55,7.982,1.189,0-5.323s9.168-2.359,11.532,1.191l-1.187,6.5ZM475.492,872.025c-7.58-3.8-15.161-.009-15.161-.009-1.272,12.633-11.869,12.626-11.869,12.626l13.507,7.591,13.514-5.045,17.692-5.887,15.155,10.959c11.382-13.889.013-21.9.013-21.9Zm287.466,257.813-13.116-2.768-22.775-14.512-20.02-.014-17.256-8.984-6.9,0s1.387-9.665-.683-10.357-17.254-9.676-17.254-9.676l-11.741,4.135.007-8.285-8.283-3.456-6.906,0,.694-6.9s6.222-12.267,2.771-14.42-15.86-29.774-15.86-29.774L607,1014.448l-20.022-.014L569.73,997.855l-17.251-13.818L542.823,964.7l-10.35-6.912s-11.741,7.589-14.5,6.9-20.017-6.917-20.017-6.917l-14.494-4.151L465.5,961.871l-.011,18.66-6.9-4.838,0-6.9,6.22-11.732,2.766-8.283-6.211-2.766-8.29,9.66-20.716,6.182-4.148,8.991-9.672,8.97-2.764,7.593L400.6,974.968s-13.813,6.9-15.885,6.894S368.841,971.5,368.841,971.5l-7.586-14.5,4.155-19.328,3.463-20.02-13.112-8.292-17.95-.011-14.1-4.15,6.514-10.353,7.6-15.184,6.91-11.042s1.939-5.058,4.146-6.211c8.8-4.6,0-8.975,0-8.975s-18.64-1.391-21.4-.013-10.359,5.517-10.359,5.517l-.009,15.88-13.813,6.2-21.4,4.82-14.489-14.507c-2.07-2.072-6.89-24.858-6.89-24.858l8.982-8.278,4.146-6.9.7-16.568,8.98-7.589,3.456-8.973,10.362-7.589,9.672-8.971,8.975-2.755,12.427,2.768c.692-4.831,23.476-2.746,23.476-2.746l8.975-.436-.688-5.083c4.144-3.449,17.95.011,17.95.011l18.71-1.523c4.074.847,7.521,9.134,7.521,9.134l-8.29,7.589,5.512,16.573,5.519,7.6-2.076,7.593,13.119-2.063.7-13.117.7-15.878-2.063-17.415,12.445-26.763,50.419-32.419-.683-11.737,3.463-16.566,8.973,3.083,15.889-18.826,20.716-6.854,12.433-8.436,6.22-12.424,22.788-6.89,22.79-11.723-10.364,11.04L580.992,643l12.429-2.753,11.049-6.207,9.667-2.757,8.977-2.755,2.766-6.214-6.213,0L610,618.855c-6.209-4.836-13.8-10.364-13.8-10.364-.69-3.454,2.074-6.213,2.074-6.213l6.218-5.6s2.762-3.366.692-3.369-17.258-3.312-17.258-3.312l-16.575,6.661-9.665-.007,11.744-10.265,13.116.009,14.5-3.445s15.88.011,17.95.011l12.427.009L648,579.526l11.741-6.458,14.5-1.463,4.153-15.5-9.66-8.328-13.8-7.188L652.175,524.3l-7.584-16.575-6.9,0-.7,8.975-11.045-.007-2.766,5.521-4.144,2.76-6.905,1.375-6.209-6.218,8.29-8.968-9.66-8.982-11.732-6.22-12.427-.009-8.977,2.757L558.98,513.193l-9.672,8.281,2.757,7.6-3.458,11.458,2.067,4.42-11.739,4.135-13.119,2.755L520.3,550.45l-4.146,5.557,7.584,15.505-7.6,5.171-10.355-.007-8.968-10.869-2.067-6.4L500.961,556l-4.829-8.323-14.5-.7-19.325-11.995-8.975,0-2.065-7.35-6.213-2.766,8.982-10.35,13.123-7.586,22.788-8.27,8.285-2.757,17.952-4.132,12.431-6.9,11.054-9.658,14.5.009,17.263-4.382,11.045.007,4.84-12.865-22.091-.013-8.287,6.35-14.5-.009c-3.449-4.285-11.042-6.362-11.042-6.362l0-4.831,7.6-6.9,9.669-7.589c4.836-5.519,8.292-14.492,8.292-14.492l20.017,6.917,15.146-.811,10.4-.555,13.119.7,7.591,2.766c-2.074,5.521-10.355,1.373-10.355,1.373l-24.858,2.748-11.049,6.207,3.456-7.593-11.737.683-13.813,8.966,9.663,4.84,22.784.014,12.422,4.84,10.359-4.137,11.045,4.15,13.114,4.15-15.883,4.964-13.811,6.5-13.811,3L579.714,478l4.825,9.669,29-.672,17.943,11.056,15.188.009.694-6.213,3.456-6.211,6.9-1.375-5.519-7.6-2.067-5.777,8.285.007,6.9,5.087c5.521,4.146,17.262-5.074,17.262-5.074l17.265-6.5-21.4-6.368-6.9-6.908c2.074-4.141-22.777-10.37-22.777-10.37l-19.323-11.748-4.831-4.836-16.568-.009,13.121-5.517,32.446,3.472,16.57-3.44,37.979-9.642,25.547-6.2,18.645-6.894-21.4-3.465s-15.191,4.135-17.262,4.132-20.022,1.368-22.094,1.368l-48.327-.029-15.191,3.44,13.8,3.461-8.287,4.829-14.5-.009-8.285,2.755,11.051-8.276-11.734-2.768-14.5,3.443L577.68,415.169l8.283,2.768L597.7,413.11l9.665,2.079-10.357,2.755-4.146,5.519,6.9,2.076-18.642,1.368-32.444-5.541-13.128,15.869-26.246,18.626,6.9,5.526-4.836,2.9-6.216,3.306-17.948-3.319-24.858,6.494-45.574,11.269L264.8,628.308,204,707.668,168.661,918.9l62.146-20.674,9.66,10.362,16.568,2.773,11.04,6.91,11.741-4.825,9.658,9.672L310.87,934.87l20.712,2.775,6.2,20.714s14.489,13.128,13.8,15.89,4.825,15.19,7.586,15.193,20.015,8.986,20.015,8.986l11.737,1.389,4.838-10.353,10.357.007-.007,10.355,4.139,5.526,1.371,15.88,4.135,11.739-6.908,7.591-11.056,13.878-13.82,19.245,1.371,18.642-3.461,12.424,10.355,3.458-8.984,12.422s4.825,13.811,4.825,15.88,7.582,17.265,7.582,17.265l9.66,8.292,4.135,13.811,23.444,48.34,16.561,13.818,24.154,12.442s15.179,16.579,15.869,18.651,8.265,32.453,8.265,32.453l-.7,17.26,4.82,17.952,1.368,20.022,2.056,27.617,6.89,22.1,6.2,29-7.6,9.66,4.825,14.319,5.51,20.9,9.658,10.362-.7,16.57,2.063,16.57L574.9,1569.5l8.278,8.979.014-21.4,13.626-7.982.009-12.723-13.62-6.22.007-9.667,6.813-6.209,6.82-11.042,0-8.975c5.71-2.067,0-8.283,0-8.283l-9.478-.007L586.7,1477l8.975,0,3.728,5.526,7.319-5.519L601.2,1465.96c1.382-3.452,11.045.007,11.045.007l16.577-9.656,6.908-8.281.007-11.047-8.281-6.908-6.9-11.051,8.285,0s12.422,6.222,16.568.011,10.366-14.492,10.366-14.492l7.6-17.946s14.514-26.226,15.9-28.3.018-27.617.018-27.617l22.795-18.626,15.188.009,12.44-20.7,9.674-13.622.013-22.963,3.465-22.089-5.51-22.071,19.348-25.559,14.505-13.8-5.505-25.55ZM917.124,587.449l4.708,2.75,6.283-5.49,8.631,0,8.242-2.741,3.732-5.1-1.762-7.065,3.533-3.726c.4-5.69-8.627-9.816-8.627-9.816l-5.1,0-6.283,7.256-6.669,0-2.359,8.238,1.173,6.377-5.5,3.431Zm41.628-52.165-7.065,3.135-.007,10.6.782,2.748a29.615,29.615,0,0,1,.782,6.672l5.1,3.535,5.1,3.141,2.353,4.71s-.789,4.71-3.535,4.708l-6.281,1.957,2.353,4.319s-4.71,2.35-5.1,4.312l4.315,3.141-3.928,3.923-8.634-.007,0,4.71,18.051.011,7.458-4.706,10.986,1.969s9.027-1.955,10.988-1.955l-1.568-1.962,2.75-3.53,4.319-5.1-5.492-2.357-6.279-1.966.789-6.672L981.1,566.1l-9.022-4.912-.78-9.025.791-7.849-9.418,0-1.959-3.926,5.5-5.1Zm51.385,33.779v-2.944l6.278,0,3.535-2.548,0-9.811,4.712-2.35-1.566-7.849-7.454-2.751-10.989,3.524,0,5.887-6.672.78-1.573,5.3,4.708,2.162-7.458,4.312-1.964,3.332,6.276,5.694Zm395.309,238.146,25.957,14.112,13.357-5.187,8.894,12.618,23.736,5.209,10.384,5.2,28.979-76.4-8.135-40.808L1378.919,509.7l-38.558-28.956-46.738-.029-20.775,2.955-5.2,10.382-11.125-3.714-5.186-9.649-10.386,0,4.449,4.454,3.7,7.42-16.321-.009,0,9.642-11.689-1.7-6.867-1.148-4.009,2,3.719,2.292,5.15,1.146-4.865,1.715-6.009-2.292-7.726-2.582-2.287-5.153-5.721-4.582-6.582-.863-4.665-5.44,10.105.865,8.869,4.011,7.44.863s4.582-1.141,5.153-.283,10.874,2.3,10.874,2.3l6.013-4.575-10.011-8.1-18.029-5.373s-30.334-4.168-31.766-4.1S1157,467.259,1157,467.259l-10.586-2.582-23.184-.013-35.206,6.49-19.469,12.366L1045.361,504.4s-20.036,2.849-21.179,3.135-9.452,8.867-9.452,8.867l4.573,10.02-1.146,4.863,3.146,2.578,2.287,4.582,3.144,4.867,11.734-1.71,12.6-7.148,9.728,5.157,7.433,12.885,1.427,7.728,8.87,1.721,6.013-5.148,6.3-1.427,3.44-10.3.578-8.013,8.589-2.568,0-5.438-3.146-2.292-4.006-2.578-1.425-9.447,13.094-8.292s6.948-6.292,6.95-7.436,3.436-4.863,3.436-4.863,5.438.29,7.155.575,10.874,3.443,10.874,3.443l3.431,2.577-10.591,5.144-6.233,6.294-4.649,3.144,4.287,10.02,11.159,5.73,10.018-2,15.862-.82s18.193,3.7,19.051,4.274-5.258,2.573-5.258,2.573l-7.051,2-4.009,2.573-6.58-3.438s-5.436-3.723-9.442-3.155a19.286,19.286,0,0,0-7.73,3.431l4.29,6.584,6.006,4.011s-2.58,7.438-4.3,7.153-4.863-5.443-4.863-5.443l-6.58-2.58-4.3,2.575.571,6.3-1.438,8.869-7.157,4.575-5.155,4-6.865-4.011-8.874,2.571-15.454-.87-3.436,3.146-5.438-2.292s-13.451.564-14.31.849-8.869-4.011-8.869-4.011l-3.429-7.73,4.3-5.148-2-2.292-1.714-4.294,2.863-3.431-4.292-1.148-7.159,7.15-.29,6.87s3.717,6.584,4,7.443a48.812,48.812,0,0,1,.283,6.011l-7.157,2.858-7.728,2.283,1.429,2.865,8.011,1.436-2.577,4.577-4.58.283-2.294,5.721-1.432,3.148-6.3-1.721.29-4.007.29-5.15-2.575-2.577-3.723,4-4.009,5.148-9.159,1.712-4.3,3.431-2.865,6.294-6.872,3.144-5.438,3.431-8.3-4.3-1.146,2,1.715,4.292-2.007,2.29-10.874-.865-6.009-.863-.865,8.013,10.588,1.723,5.15,4.582s4,4.867,4.861,4.87,6.582,1.434,6.582,1.434l-2.3,12.591L976.3,655.753l-21.464-.3-23.467-.589-7.443,2.858-2.294,6.582,2,6.87-4.3,13.449-1.724,6.867s0,6.011.568,6.869,4,6.87,4,6.87l-2.582,9.73,7.728,2.294,12.878.867,6.865,3.724,5.153.863,8.586-3.717,12.88-1.708,12.027-10.011-2-12.307,7.447-9.44,15.745-10.006,6.872-2.285-.854-10.3,9.449-5.431,9.443,3.153,6.3-3.431,19.177-5.712,19.166,17.757,26.318,18.047s5.431,10.878,5.717,11.737-4.011,7.44-4.011,7.44l-14.883-.009-5.438,1.141s1.715,4.292,2.858,4.294,12.876,5.445,12.876,5.445l3.719,2.865,2-.573-.283-5.436,1.149-5.153,4.006.575s4.009-4.575,4.3-5.721,4.011-7.438,4.011-7.438l-3.146-6.013,1.721-4,4.865.575.569,6.011h1.717l-.568-7.44-4.577-2.865-6.58-4.011-4.29-6.3-7.44-2.009-8.582-6.016-2-6.87-8.011-4.011-2-6.3,2.292-6.58,5.153-.856.283,6.3,5.15,1.721,3.436-2,5.146,9.161,10.584,6.016,8.3,4.872,5.151.575,8.579,9.449,2,12.022,16.015,16.608,2.283,11.737,11.442,8.02,3.151-2.575-1.712-7.44,6.3-3.432-2-5.153-6.294-2.58-2.573-5.153,1.151-8.3-3.719-4.3,3.436.575,2.573,3.148,4.011-5.433,6.867.29,6.867,2.865,5.148,6.872,5.146,8.018s-3.436,2-3.721,2.861,2.856,6.3,2.856,6.3l6.579,6.016,5.148,7.445,10.3-.281,1.142,4.58,7.44.863,7.155-1.712,2.006-4.578,3.146,4.294,8.3,2.867,7.155-.568,6.013-6.577,5.438,2.292,4,2.577-1.434,5.723,3.555,11.775-5.2,11.867L1264.511,773l-31.158-.018-11.874,4.443-19.282-9.656-12.611,1.476-21.512-7.8-17.063-.011-5.2,4.818,2.962,8.164-6.681,6.672-17.056-10.4-13.355,1.474-5.189-8.905-20.026-5.946-14.092-6.687-10.384-5.2,12.622-14.831-3.7-12.613-8.9-5.2-52.675,5.9-20.779,8.148-13.352.735-14.1,5.184-17.06-3.721-11.137,13.348-13.359,8.894L907.5,776.488l3.13,11.13-15.588,14.827-15.584,5.926-7.427,14.092S855.688,858.8,854.2,861.769s-.013,21.516-.013,21.516l6.663,21.519-15.6,36.34,5.923,17.809,8.15,16.328,21.5,30.428-.631,15.269,44.336,33.786,29.718-11.917,28.927,8.921,35.621-19.267s11.869.007,15.575,6.685,5.928,12.618,19.28,12.624,20.022,14.851,20.022,14.851l-5.946,17.058,2.962,8.905-5.941,14.092,14.076,28.941,10.373,22.262,9.631,21.521,2.209,27.451-2.236,15.577-17.08,29.664,5.166,46,5.928,10.388-2.229,7.418,10.377,11.135,6.663,25.97-5.95,24.478,8.892,18.552s8.148,20.036,8.887,22.262,5.93,9.647,5.184,13.357-2.975,13.35-2.975,13.35l2.959,14.84,37.835.022,17.808-5.923,43.8-44.486s10.393-12.6,11.137-14.829,6.694-29.671,6.694-29.671l31.168-12.593.013-24.483-6.665-19.291,16.332-15.57,43.785-25.2,3.721-19.287.02-33.383-8.146-25.229,2.236-15.577-8.157-6.683,14.11-20.763,5.209-27.447,20.781-12.6,4.458-12.609,37.86-39.232,11.892-37.318,11.141-20.6.013-22.255-10.384-3.717L1399.4,980.8l-16.321,1.474-17.067,4.44-14.089-8.912,1.49-11.126-17.793-20.042-17.8-10.4-8.146-26.712L1292.627,893.2l-1.469-20.775-12.6-18.552L1263,818.993l-16.312-16.332-1.474-13.355,6.674,2.971,7.416,5.941,2.959,11.128c5.937,0,8.168-11.121,8.168-11.121l5.186,11.13,5.184,14.1,16.307,24.491,8.9,1.49,10.373,21.521-.748,9.645,29.658,30.435,5.175,28.193,5.186,12.615,9.638,9.651,44.52-11.842,8.164-7.415,19.294-5.923,0-8.9,22.265-14.824,9.469-17.215,5.384-8.741,7.427-10.382-12.6-17.071-17.139-14.528L1446.612,831l-6.314,1.454-4.458,13.35-17.067,4.44-8.9-5.939-2.96-12.615-5.935,1.481-8.894-16.328-8.157-4.456-10.375-17.069,7.422-8.155ZM1058.329,697.8l1.568-7.061.007-10.2s-3.133-2.748-5.687-2.75a6.208,6.208,0,0,0-4.124,1.569l-.007,11.379c.784,1.177,0,7.063,0,7.063Zm.013-30.608s.4-5.1-5.49-5.1l-2.753,7.847,2.744,5.887,5.492,0ZM856.052,464.5l27.8.018,15.175-21.82,34.873.02,5.568-13.894,21.485-11.359c10.115-8.838.016-24.844.016-24.844l-43.718-5.505-43.462,5.452-63.169-11.833L771.69,398.4s-28.058,15.143-31.846,13.878-22.743.061-22.743.061,13.89,12.568,20.206,13.836,13.9.009,13.9.009.025,12.31,2.519,15.164c8.838,10.114-9.362,17.683-9.362,17.683l-.009,11.914s1.98,22.568,5.714,21.539S760,504.523,760,504.523l11.615,12.642,21.226.013L819.4,485.607l26.139-11.33Zm545.3,755.84-3.422-9.31-3.923,3.917-3.434,7.836-7.843,4.894-3.436,10.287-4.908,12.245-19.109,5.867-8.339,14.2-1.973,23.516-6.867,11.265-7.845,8.323,2.932,13.721,5.384,6.37-5.393,7.346,5.386,4.413,18.127.011,10.3-15.182s8.339-17.633,8.341-19.1,3.93-17.635,3.93-17.635l14.22-18.608.014-24.986,9.8,0-2.928-18.13ZM412.335,843.916,390.861,836.6s-5.946.845-12.948,2.485a82.634,82.634,0,0,0-15.031,4.8l30.493,10.4,12.3.007L426.215,872l13.9.009s11.375-5.047,7.591-13.894l-17.685-6.33Z" transform="translate(-210.407 -327.314)" fill="url(#radial-gradient-9)"/>
                  </g>
                </g>
              </g>
              <path id="Path_401" data-name="Path 401" d="M1324.06,506.308a139.217,139.217,0,1,0-273.046,38.334A139.346,139.346,0,0,0,939.84,637.408c-1.24-.02-2.465-.092-3.71-.092a225.038,225.038,0,0,0-185.711,97.759,139.177,139.177,0,0,0-242.858,48.032,139.219,139.219,0,1,0,50.792,150.209,139.147,139.147,0,0,0,164.263,1.243c30.026,89.152,114.241,153.384,213.515,153.384,124.439,0,225.315-100.878,225.315-225.315a225.256,225.256,0,0,0-9.937-66.322A139.134,139.134,0,0,0,1205.434,644,139.237,139.237,0,0,0,1324.06,506.308Z" transform="translate(669.944 361.4)" fill="url(#radial-gradient-10)"/>
              <path id="Path_402" data-name="Path 402" d="M1359.711,574.062a134.264,134.264,0,1,0-265.43,16.044,134.4,134.4,0,0,0-113.956,80.714c-1.189-.115-2.362-.279-3.559-.373a217.029,217.029,0,0,0-186,79.831A134.227,134.227,0,0,0,553.62,777.948,134.268,134.268,0,1,0,591,926.231a134.192,134.192,0,0,0,157.829,13.716c22.073,88,98.143,156.17,193.587,163.739,119.635,9.483,224.308-79.811,233.791-199.448a217.238,217.238,0,0,0-4.5-64.519A134.187,134.187,0,0,0,1235.168,697.4,134.286,134.286,0,0,0,1359.711,574.062Z" transform="translate(726.926 438.836)" fill="url(#radial-gradient-11)"/>
              <path id="Path_403" data-name="Path 403" d="M1612.505,545.738a134.264,134.264,0,1,0-265.43,16.042,134.4,134.4,0,0,0-113.956,80.714c-1.189-.115-2.362-.279-3.559-.373a217.035,217.035,0,0,0-186,79.834,134.226,134.226,0,0,0-237.148,27.666A134.269,134.269,0,1,0,843.8,897.907a134.2,134.2,0,0,0,157.829,13.714c22.074,88,98.143,156.173,193.588,163.739,119.635,9.485,224.308-79.811,233.791-199.446a217.254,217.254,0,0,0-4.5-64.522,134.186,134.186,0,0,0,63.454-142.319A134.284,134.284,0,0,0,1612.505,545.738Z" transform="translate(1042.193 403.51)" fill="url(#radial-gradient-12)"/>
              <path id="Path_404" data-name="Path 404" d="M419.778,630.55c-.49,0-.969.045-1.452.074a115.6,115.6,0,0,0-218.366-31.7,61.387,61.387,0,0,0-99.936,35.586,23.922,23.922,0,1,0,1.054,27.268,61.308,61.308,0,0,0,96.878,32.653A115.6,115.6,0,0,0,416.05,678.088a23.916,23.916,0,1,0,3.728-47.538Z" transform="translate(385.189 568.706)" fill="url(#radial-gradient-13)"/>
              <path id="Path_405" data-name="Path 405" d="M335.817,622.337c-.308,0-.611.029-.915.047a72.895,72.895,0,0,0-137.7-19.99,38.709,38.709,0,0,0-63.021,22.44,15.083,15.083,0,1,0,.667,17.2,38.656,38.656,0,0,0,61.088,20.59,72.9,72.9,0,0,0,137.531-10.3,15.288,15.288,0,0,0,2.35.2,15.089,15.089,0,1,0,0-30.179Z" transform="translate(447.605 603.26)" fill="url(#radial-gradient-14)"/>
            </g>
          </g>
          <g id="Group_366" data-name="Group 366" transform="translate(792.576 878.817)">
            <path id="Path_407" data-name="Path 407" d="M275.976,659.689a.857.857,0,0,1-.53-.186.845.845,0,0,1-.126-1.186c.759-.942,77.245-94.907,197.648-165.269,70.737-41.338,142.576-66.571,213.517-75,88.705-10.535,176.228,5.328,260.147,47.145a.842.842,0,1,1-.75,1.508c-83.624-41.666-170.842-57.475-259.2-46.978-70.71,8.4-142.331,33.556-212.868,74.775C353.679,564.71,277.389,658.436,276.632,659.375A.842.842,0,0,1,275.976,659.689Z" transform="translate(-275.133 -414.895)" fill="url(#radial-gradient-15)"/>
          </g>
          <g id="Group_369" data-name="Group 369" transform="translate(1447.217 913.409)">
            <path id="Path_412" data-name="Path 412" d="M599.425,446.772a16.484,16.484,0,1,1-16.485-16.483A16.486,16.486,0,0,1,599.425,446.772Z" transform="translate(-566.457 -430.289)" fill="url(#linear-gradient)"/>
            <circle id="Ellipse_16" data-name="Ellipse 16" cx="10.611" cy="10.611" r="10.611" transform="translate(5.873 5.873)" fill="url(#linear-gradient)"/>
            <path id="Path_413" data-name="Path 413" d="M583.4,441.051a6.176,6.176,0,1,1-6.177-6.175A6.178,6.178,0,0,1,583.4,441.051Z" transform="translate(-560.736 -424.568)" fill="url(#linear-gradient-3)"/>
          </g>
          <g id="Group_370" data-name="Group 370" transform="translate(791.57 838.462)">
            <path id="Path_414" data-name="Path 414" d="M276.534,682.086a.842.842,0,0,1-.84-.786c-4.025-57.641,4.009-108.464,23.878-151.052a226.838,226.838,0,0,1,69.778-85.941c51.736-39.035,106.363-47.282,106.909-47.36a.842.842,0,0,1,.24,1.667c-.542.079-54.8,8.283-106.192,47.082A225.157,225.157,0,0,0,301.079,531c-19.734,42.315-27.707,92.844-23.7,150.182a.845.845,0,0,1-.782.9Z" transform="translate(-274.685 -396.937)" fill="url(#linear-gradient-4)"/>
          </g>
          <g id="Group_367" data-name="Group 367" transform="translate(776.934 1106.284)">
            <path id="Path_408" data-name="Path 408" d="M301.139,532.606a16.484,16.484,0,1,1-16.483-16.485A16.483,16.483,0,0,1,301.139,532.606Z" transform="translate(-268.172 -516.121)" fill="url(#linear-gradient-5)"/>
            <circle id="Ellipse_14" data-name="Ellipse 14" cx="10.611" cy="10.611" r="10.611" transform="translate(5.874 5.873)" fill="url(#linear-gradient-5)"/>
            <path id="Path_409" data-name="Path 409" d="M285.114,526.885a6.177,6.177,0,1,1-6.177-6.177A6.176,6.176,0,0,1,285.114,526.885Z" transform="translate(-262.451 -510.4)" fill="url(#linear-gradient-7)"/>
          </g>
          <g id="Group_368" data-name="Group 368" transform="translate(976.78 822.822)">
            <path id="Path_410" data-name="Path 410" d="M390.074,406.46a16.484,16.484,0,1,1-16.483-16.483A16.483,16.483,0,0,1,390.074,406.46Z" transform="translate(-357.106 -389.977)" fill="url(#linear-gradient-8)"/>
            <circle id="Ellipse_15" data-name="Ellipse 15" cx="10.611" cy="10.611" r="10.611" transform="translate(5.873 5.872)" fill="url(#linear-gradient-5)"/>
            <path id="Path_411" data-name="Path 411" d="M374.045,400.74a6.176,6.176,0,1,1-6.175-6.177A6.176,6.176,0,0,1,374.045,400.74Z" transform="translate(-351.385 -384.258)" fill="url(#linear-gradient)"/>
          </g>
        </g>
        <rect id="Rectangle_539" data-name="Rectangle 539" width="1639" height="1080" transform="translate(308)" fill="url(#linear-gradient-11)"/>
      </g>
      <g id="Group_377" data-name="Group 377" transform="translate(604.182 152.88)">
        <g id="Group_376" data-name="Group 376" transform="translate(327.818 142.12)">
          <g id="Group_375" data-name="Group 375">
            <g id="Group_372" data-name="Group 372" transform="translate(624.832 144.437)">
              <path id="Path_415" data-name="Path 415" d="M667.334,266.807c-6.627-10.3-15.739-28.509-14.5-49.583l46.16,44.094A127.784,127.784,0,0,1,667.334,266.807Z" transform="translate(-652.718 -217.224)" fill="url(#radial-gradient-16)"/>
            </g>
            <g id="Group_374" data-name="Group 374">
              <path id="Path_416" data-name="Path 416" d="M502.7,264.264,609.041,147.53s13.874-11.1,37.207-1.5a3.729,3.729,0,0,1,2.123,4.766L612.427,291.4C575.284,282.182,538.105,272.983,502.7,264.264Z" transform="translate(-166.375 -142.12)" fill="url(#radial-gradient-17)"/>
              <path id="Path_417" data-name="Path 417" d="M574.694,285.2l34.863-136.376c-17.753,3.2-24.161,14.6-24.161,14.6L543.574,277.491Q559.105,281.336,574.694,285.2Z" transform="translate(-128.642 -135.927)" fill="#fee699"/>
              <path id="Path_418" data-name="Path 418" d="M364.985,191.758s23.249-22.191,76.089-12.681S1103.7,341.825,1103.7,341.825l37.725,15.933a16.1,16.1,0,0,1,9.831,14.826h0A16.064,16.064,0,0,1,1140,387.936c-28.582,8.958-109.972,29.849-225.486,21.1a203.117,203.117,0,0,1-35.471-5.939L396.688,278.417s-57.673-18.591-67.41-45.606C319.156,204.735,364.985,191.758,364.985,191.758Z" transform="translate(-327.818 -110.19)" fill="url(#linear-gradient-12)"/>
              <path id="Path_419" data-name="Path 419" d="M886.568,374.268a210.338,210.338,0,0,0,36.734,6.15c106.856,8.1,185.478-8.295,222.147-18.5a16.073,16.073,0,0,0-5.469-3.841l-37.361-16.412S493.52,188.145,440,178.916c-32.04-5.768-53.552-.9-65.135,5.966-7.662,3.681-11.32,7.194-11.32,7.194s-25.334,7.185-34.165,22.412c20.67,18.732,57.681,30.67,57.681,30.67Z" transform="translate(-326.377 -110.509)" fill="url(#radial-gradient-18)"/>
              <path id="Path_420" data-name="Path 420" d="M886.568,374.268a210.338,210.338,0,0,0,36.734,6.15c106.856,8.1,185.478-8.295,222.147-18.5a16.073,16.073,0,0,0-5.469-3.841l-37.361-16.412S493.52,188.145,440,178.916c-32.04-5.768-53.552-.9-65.135,5.966-7.662,3.681-11.32,7.194-11.32,7.194s-25.334,7.185-34.165,22.412c20.67,18.732,57.681,30.67,57.681,30.67Z" transform="translate(-326.377 -110.509)" fill="url(#radial-gradient-19)"/>
              <path id="Path_421" data-name="Path 421" d="M370.744,197.664l-.067-.054c-8.321,6.166-11.935,11.166-11.935,11.166l-.129.065c.612,1.685,3.419,6.575,15.874,11.05A84.772,84.772,0,0,1,389.7,205.435C382.358,203.6,375.66,201.1,370.744,197.664Zm28.693,9.785a57.434,57.434,0,0,0-12.676,15.887c4.568,1,9.862,1.917,16.02,2.687l6.033-17.251C405.707,208.416,402.563,207.978,399.438,207.449Z" transform="translate(-299.389 -90.894)" fill="url(#radial-gradient-20)"/>
              <path id="Path_422" data-name="Path 422" d="M365.268,197.027c12.258-7.266,22.464-9.485,56.371-3.381,56.643,9.768,701.247,172.236,701.247,172.236l2.179.958c7.366-1.71,13.849-3.385,19.364-4.919a16.079,16.079,0,0,0-5.471-3.842L1101.6,341.665S492.5,188.145,438.977,178.916c-32.04-5.768-53.552-.9-65.135,5.966-7.662,3.681-11.32,7.194-11.32,7.194s-21.853,6.214-32.036,19.307C339.24,204.186,355.108,197.573,365.268,197.027Z" transform="translate(-325.355 -110.509)" fill="url(#radial-gradient-21)"/>
              <path id="Path_423" data-name="Path 423" d="M1139.983,363.007c-28.582,8.958-109.972,29.849-225.486,21.1a203.117,203.117,0,0,1-35.471-5.939L396.675,253.487S339,234.9,329.265,207.881a23.608,23.608,0,0,1-1.4-6.748,22.667,22.667,0,0,0,1.4,9.129c9.737,27.015,67.41,45.606,67.41,45.606L879.027,380.544a203.117,203.117,0,0,0,35.471,5.939c115.514,8.752,196.9-12.137,225.486-21.1a16.064,16.064,0,0,0,11.256-15.353c0-.417-.06-.823-.092-1.237A16.017,16.017,0,0,1,1139.983,363.007Z" transform="translate(-327.805 -87.641)" opacity="0.43" fill="url(#linear-gradient-13)"/>
              <path id="Path_424" data-name="Path 424" d="M477.242,243.457s186.946,181.457,262.016,233.2c59.239,40.827,122.9,57.648,147.115,62.927a3.124,3.124,0,0,0,2.85-5.277L690.066,301.936S601.756,229.514,477.242,243.457Z" transform="translate(-189.877 -50.216)" fill="url(#radial-gradient-22)"/>
              <path id="Path_425" data-name="Path 425" d="M627.163,293.7s-30.853-25.286-81.78-43.1c28.611,33.105,141.755,162.929,190.4,202.319a318.544,318.544,0,0,0,60.516,38.119Z" transform="translate(-126.972 -41.978)" fill="#fee699"/>
              <g id="Group_373" data-name="Group 373" transform="translate(618.594 93.906)">
                <path id="Path_426" data-name="Path 426" d="M649.474,242.083Z" transform="translate(-649.474 -143.744)" fill="url(#radial-gradient-23)"/>
                <path id="Path_427" data-name="Path 427" d="M821.123,335.045l-15.076-6.368s-65.683-16.506-155.8-39.019c7.741,1.737,45.765,7.675,99.913-27.22C807.472,225.5,815.615,182.57,883,192.365a9.613,9.613,0,0,1,7.025,14.051l-68.9,128.63Z" transform="translate(-648.763 -190.949)" fill="url(#radial-gradient-24)"/>
              </g>
              <path id="Path_428" data-name="Path 428" d="M492.475,221.612l-6.675-1.546a4.19,4.19,0,0,0-5.029,3.137l-2.827,12.21a4.191,4.191,0,0,0,3.137,5.029l6.677,1.546a4.192,4.192,0,0,0,5.029-3.139l2.827-12.208A4.19,4.19,0,0,0,492.475,221.612Zm44.775,10.835-6.675-1.546a4.193,4.193,0,0,0-5.031,3.137l-2.827,12.21a4.191,4.191,0,0,0,3.139,5.029l6.675,1.546a4.19,4.19,0,0,0,5.029-3.139l2.827-12.208A4.19,4.19,0,0,0,537.25,232.447Zm44.773,10.835-6.675-1.546a4.19,4.19,0,0,0-5.029,3.137l-2.827,12.21a4.191,4.191,0,0,0,3.137,5.029l6.675,1.546a4.193,4.193,0,0,0,5.031-3.139l2.827-12.208A4.191,4.191,0,0,0,582.023,243.282ZM626.8,254.117l-6.675-1.546a4.193,4.193,0,0,0-5.031,3.137l-2.827,12.21a4.191,4.191,0,0,0,3.139,5.029l6.675,1.546a4.19,4.19,0,0,0,5.029-3.139l2.827-12.208A4.19,4.19,0,0,0,626.8,254.117Zm44.773,10.835-6.675-1.546a4.19,4.19,0,0,0-5.029,3.137l-2.829,12.21a4.193,4.193,0,0,0,3.139,5.029l6.675,1.546a4.194,4.194,0,0,0,5.031-3.139l2.827-12.208A4.191,4.191,0,0,0,671.571,264.952Zm44.775,10.835-6.677-1.546a4.191,4.191,0,0,0-5.029,3.137l-2.827,12.21a4.192,4.192,0,0,0,3.137,5.029l6.677,1.546a4.192,4.192,0,0,0,5.029-3.139l2.827-12.208A4.19,4.19,0,0,0,716.346,275.787Zm44.773,10.833-6.675-1.544a4.189,4.189,0,0,0-5.029,3.137l-2.829,12.21a4.193,4.193,0,0,0,3.139,5.029L756.4,307a4.192,4.192,0,0,0,5.029-3.139l2.829-12.208A4.2,4.2,0,0,0,761.118,286.62Zm44.775,10.835-6.677-1.544a4.19,4.19,0,0,0-5.029,3.137l-2.827,12.21a4.192,4.192,0,0,0,3.137,5.029l6.677,1.546a4.193,4.193,0,0,0,5.029-3.139l2.827-12.208A4.193,4.193,0,0,0,805.893,297.455Zm44.773,10.835-6.675-1.546a4.2,4.2,0,0,0-5.031,3.139l-2.827,12.21a4.192,4.192,0,0,0,3.139,5.029l6.675,1.546a4.192,4.192,0,0,0,5.029-3.139l2.827-12.208A4.193,4.193,0,0,0,850.666,308.29ZM404.528,200c-12.349-2.56-36.453-8.67-46.483-18.966l-.044-.052a46.1,46.1,0,0,0-10.806,6.823l-.108.033c.415,2.577,5.018,14.827,54.423,25.826A7,7,0,1,0,404.528,200Z" transform="translate(-310.03 -106.241)" fill="#efbc09"/>
            </g>
            <path id="Path_429" data-name="Path 429" d="M678.561,279.26s79.48,84.494,174.251,100.11l-94.9-93.823S727.663,270.971,678.561,279.26Z" transform="translate(-4.029 -17.872)" fill="url(#radial-gradient-25)"/>
            <path id="Path_430" data-name="Path 430" d="M681.879,277.78c-1.117.171-2.164.3-3.319.492,0,0,79.482,84.494,174.253,100.11l-1.742-1.508C759.446,359.372,683.391,279.378,681.879,277.78Z" transform="translate(-4.03 -16.884)" fill="url(#linear-gradient-14)"/>
          </g>
          <path id="Path_431" data-name="Path 431" d="M739.476,225.083c-2.748,1.958-5.587,3.912-8.587,5.844-2.508,1.615-4.968,3.116-7.4,4.562l31.961,9.239Zm-21.86,13.772c-17.77,9.814-33.463,15.2-46.5,18.008l88.84,20.37Z" transform="translate(-10.9 -65.532)" fill="#fee699"/>
        </g>
        <path id="Path_432" data-name="Path 432" d="M357.547,181.035l-.04-.05a43.955,43.955,0,0,0-10.316,6.516l-.1.029c.213,1.321,1.587,5.3,10.089,10.325a63.223,63.223,0,0,1,13.179-8.466C365.23,187.012,360.67,184.239,357.547,181.035Zm19.664,11.193a42.882,42.882,0,0,0-11.518,9.872c3.208,1.375,6.962,2.789,11.368,4.214l6.839-11.8C381.671,193.814,379.429,193.055,377.211,192.228Z" transform="translate(17.788 35.879)" fill="url(#radial-gradient-26)"/>
      </g>
    </g>
  </g>
</svg>
